<svg xmlns="http://www.w3.org/2000/svg" width="128" height="128" viewBox="0 0 128 128">
  <defs>
    <linearGradient id="bg" x1="0" y1="0" x2="1" y2="1">
      <stop offset="0%" stop-color="#ff6b9d"/>
      <stop offset="100%" stop-color="#ffd93d"/>
    </linearGradient>
    <linearGradient id="cone" x1="0" y1="0" x2="0" y2="1">
      <stop offset="0%" stop-color="#e8a87c"/>
      <stop offset="100%" stop-color="#d4885a"/>
    </linearGradient>
  </defs>
  <!-- fondo redondo -->
  <circle cx="64" cy="64" r="62" fill="url(#bg)"/>
  <!-- orejas -->
  <ellipse cx="40" cy="30" rx="10" ry="22" fill="white" transform="rotate(-15 40 30)"/>
  <ellipse cx="88" cy="30" rx="10" ry="22" fill="white" transform="rotate(15 88 30)"/>
  <ellipse cx="41" cy="32" rx="5" ry="14" fill="#ffb3c6" transform="rotate(-15 41 32)"/>
  <ellipse cx="87" cy="32" rx="5" ry="14" fill="#ffb3c6" transform="rotate(15 87 32)"/>
  <!-- cabeza -->
  <circle cx="64" cy="62" r="28" fill="white"/>
  <!-- ojos -->
  <circle cx="54" cy="58" r="4" fill="#2d2d2d"/>
  <circle cx="74" cy="58" r="4" fill="#2d2d2d"/>
  <circle cx="55" cy="56" r="1.5" fill="white"/>
  <circle cx="75" cy="56" r="1.5" fill="white"/>
  <!-- nariz -->
  <ellipse cx="64" cy="66" rx="3" ry="2.5" fill="#ffb3c6"/>
  <!-- boca -->
  <path d="M60 70 Q64 75 68 70" stroke="#2d2d2d" stroke-width="1.5" fill="none" stroke-linecap="round"/>
  <!-- bigotes -->
  <line x1="42" y1="63" x2="52" y2="65" stroke="#2d2d2d" stroke-width="1" stroke-linecap="round"/>
  <line x1="42" y1="68" x2="52" y2="67" stroke="#2d2d2d" stroke-width="1" stroke-linecap="round"/>
  <line x1="86" y1="63" x2="76" y2="65" stroke="#2d2d2d" stroke-width="1" stroke-linecap="round"/>
  <line x1="86" y1="68" x2="76" y2="67" stroke="#2d2d2d" stroke-width="1" stroke-linecap="round"/>
  <!-- cono -->
  <path d="M52 86 L64 118 L76 86 Z" fill="url(#cone)"/>
  <!-- lineas del cono -->
  <line x1="64" y1="86" x2="64" y2="118" stroke="#c47a4a" stroke-width="1" opacity="0.5"/>
  <line x1="58" y1="90" x2="60" y2="108" stroke="#c47a4a" stroke-width="1" opacity="0.3"/>
  <line x1="70" y1="90" x2="68" y2="108" stroke="#c47a4a" stroke-width="1" opacity="0.3"/>
  <!-- bocha de helado -->
  <circle cx="64" cy="84" r="12" fill="#ffb3c6"/>
  <circle cx="58" cy="80" r="4" fill="rgba(255,255,255,0.3)"/>
</svg>
